# xmcd CD database file
#
# Track frame offsets:
#	150
#	20300
#	39828
#
# Disc length: 797 seconds
#
# Revision: 2
# Processed by: cddbd v1.5.1PL0 Copyright (c) Steve Scherf et al.
# Submitted via: CDex 1.51
#
DISCID=14031b03
DTITLE=吉川晃司 - エロス
DYEAR=1997
DGENRE=Japanese Rock
TTITLE0=エロス
TTITLE1=Strange Fruits
TTITLE2=エロス(ORIGINAL KARAOKE)
EXTD=YEAR: 1997
EXTT0=
EXTT1=
EXTT2=
PLAYORDER=
